<svg width="154" height="53" viewBox="0 0 154 53" fill="none" xmlns="http://www.w3.org/2000/svg">
<rect x="0.5" y="0.5" width="151" height="52" rx="17.5" fill="#5865F2" stroke="#AAB1FF"/>
<mask id="mask0_301_25" style="mask-type:luminance" maskUnits="userSpaceOnUse" x="14" y="6" width="124" height="24">
<path d="M138 6H14V30H138V6Z" fill="white"/>
</mask>
<g mask="url(#mask0_301_25)">
<path d="M55.6289 12.1226H62.2808C63.8841 12.1226 65.2388 12.3791 66.3499 12.8897C67.4586 13.4003 68.2894 14.1126 68.8401 15.0242C69.3908 15.9358 69.6686 16.9794 69.6686 18.1549C69.6686 19.3056 69.381 20.3492 68.806 21.2832C68.231 22.2197 67.3562 22.9594 66.1794 23.5049C65.0025 24.0503 63.5454 24.3243 61.8032 24.3243H55.6289V12.1226ZM61.735 21.2234C62.8144 21.2234 63.6453 20.947 64.2252 20.3965C64.8051 19.8436 65.0951 19.0914 65.0951 18.1375C65.0951 17.2533 64.8368 16.5485 64.3202 16.0205C63.8037 15.4924 63.0215 15.2259 61.9762 15.2259H59.8954V21.2234H61.735Z" fill="white"/>
<path d="M79.6272 24.3093C78.7061 24.0652 77.8753 23.7115 77.137 23.2458V20.3516C77.695 20.7925 78.443 21.1561 79.3811 21.4426C80.3192 21.7265 81.2256 21.8685 82.1027 21.8685C82.5121 21.8685 82.8215 21.8137 83.0311 21.7041C83.2406 21.5945 83.3454 21.4625 83.3454 21.3106C83.3454 21.1362 83.2894 20.9917 83.1748 20.8747C83.0603 20.7576 82.8386 20.6605 82.5097 20.5783L80.4629 20.1076C79.2909 19.8286 78.46 19.4426 77.9654 18.9469C77.4708 18.4538 77.2247 17.8062 77.2247 17.0042C77.2247 16.3292 77.4391 15.7439 77.8728 15.2433C78.3041 14.7427 78.9181 14.3566 79.7149 14.0852C80.5117 13.8112 81.4424 13.6742 82.5121 13.6742C83.4672 13.6742 84.342 13.7788 85.1387 13.988C85.9355 14.1972 86.5934 14.4637 87.1172 14.79V17.5272C86.5812 17.201 85.9672 16.9444 85.2654 16.7502C84.5661 16.5584 83.8473 16.4637 83.1066 16.4637C82.037 16.4637 81.5033 16.6505 81.5033 17.0216C81.5033 17.196 81.5862 17.3255 81.7519 17.4127C81.9176 17.4998 82.2221 17.5895 82.6632 17.6841L84.3688 17.998C85.4823 18.1947 86.3132 18.5409 86.859 19.0341C87.4048 19.5272 87.6777 20.257 87.6777 21.2234C87.6777 22.2819 87.2269 23.1213 86.3229 23.7439C85.4189 24.3666 84.1373 24.6779 82.4755 24.6779C81.4985 24.6754 80.5482 24.5534 79.6272 24.3093Z" fill="white"/>
<path d="M91.7031 23.9432C90.726 23.455 89.9877 22.7925 89.4955 21.9556C89.0033 21.1188 88.7548 20.1773 88.7548 19.1312C88.7548 18.0851 89.0106 17.1487 89.5223 16.3243C90.034 15.4998 90.7845 14.8522 91.7737 14.3815C92.763 13.9108 93.9447 13.6766 95.3214 13.6766C97.027 13.6766 98.4427 14.0428 99.5684 14.775V17.9656C99.1712 17.6866 98.7083 17.46 98.1795 17.2856C97.6508 17.1113 97.0855 17.0241 96.4812 17.0241C95.4238 17.0241 94.5977 17.2209 94.0008 17.6169C93.4038 18.0129 93.1041 18.5285 93.1041 19.1686C93.1041 19.7962 93.3941 20.3093 93.974 20.7128C94.5539 21.1138 95.3945 21.3155 96.4983 21.3155C97.066 21.3155 97.6264 21.2309 98.1795 21.064C98.7302 20.8946 99.2053 20.6879 99.6025 20.4438V23.5297C98.3525 24.2969 96.9028 24.6804 95.2532 24.6804C93.8643 24.6754 92.6801 24.4314 91.7031 23.9432Z" fill="white"/>
<path d="M103.823 23.9432C102.838 23.455 102.088 22.7876 101.571 21.9382C101.055 21.0889 100.794 20.1425 100.794 19.0964C100.794 18.0503 101.052 17.1163 101.571 16.2969C102.09 15.4775 102.836 14.8349 103.815 14.3691C104.793 13.9034 105.96 13.6718 107.312 13.6718C108.664 13.6718 109.831 13.9034 110.808 14.3691C111.786 14.8349 112.531 15.4725 113.043 16.2869C113.554 17.1014 113.81 18.0354 113.81 19.0939C113.81 20.14 113.554 21.0864 113.043 21.9357C112.531 22.7851 111.783 23.4526 110.799 23.9407C109.814 24.4289 108.652 24.673 107.31 24.673C105.967 24.673 104.805 24.4314 103.823 23.9432ZM109.005 20.8498C109.42 20.4264 109.629 19.866 109.629 19.1686C109.629 18.4712 109.422 17.9158 109.005 17.5049C108.591 17.0914 108.026 16.8847 107.31 16.8847C106.581 16.8847 106.011 17.0914 105.594 17.5049C105.18 17.9183 104.973 18.4712 104.973 19.1686C104.973 19.866 105.18 20.4264 105.594 20.8498C106.008 21.2732 106.581 21.4874 107.31 21.4874C108.026 21.4849 108.591 21.2732 109.005 20.8498Z" fill="white"/>
<path d="M124.059 14.3193V18.0852C123.625 17.7938 123.065 17.6493 122.37 17.6493C121.461 17.6493 120.76 17.9308 120.272 18.4937C119.782 19.0566 119.539 19.9333 119.539 21.1188V24.3268H115.36V14.1275H119.454V17.3704C119.68 16.1848 120.048 15.3106 120.555 14.7452C121.059 14.1823 121.712 13.9009 122.507 13.9009C123.108 13.9009 123.625 14.0404 124.059 14.3193Z" fill="white"/>
<path d="M137.942 11.7739V24.3269H133.763V22.0429C133.41 22.9022 132.874 23.5572 132.153 24.0056C131.432 24.4514 130.54 24.6756 129.482 24.6756C128.537 24.6756 127.713 24.4414 127.009 23.9707C126.305 23.5 125.762 22.8549 125.379 22.0355C124.999 21.216 124.806 20.2895 124.806 19.2534C124.794 18.1849 124.997 17.226 125.413 16.3767C125.827 15.5273 126.415 14.8648 127.17 14.3891C127.925 13.9134 128.788 13.6743 129.755 13.6743C131.746 13.6743 133.081 14.5585 133.763 16.3244V11.7739H137.942ZM133.14 20.7802C133.566 20.3567 133.778 19.8063 133.778 19.1338C133.778 18.4838 133.571 17.9533 133.157 17.5473C132.742 17.1413 132.175 16.9371 131.461 16.9371C130.757 16.9371 130.194 17.1438 129.772 17.5572C129.351 17.9707 129.141 18.5062 129.141 19.1687C129.141 19.8312 129.351 20.3717 129.772 20.7901C130.194 21.2086 130.749 21.4178 131.444 21.4178C132.148 21.4153 132.713 21.2036 133.14 20.7802Z" fill="white"/>
<path d="M73.1895 15.2134C74.3401 15.2134 75.2728 14.357 75.2728 13.3005C75.2728 12.2441 74.3401 11.3877 73.1895 11.3877C72.039 11.3877 71.1063 12.2441 71.1063 13.3005C71.1063 14.357 72.039 15.2134 73.1895 15.2134Z" fill="white"/>
<path d="M71.1044 16.531C72.3812 17.0939 73.9649 17.1188 75.271 16.531V24.3816H71.1044V16.531Z" fill="white"/>
</g>
<path d="M43.731 11.68C41.0768 10.428 38.239 9.51806 35.2723 9C34.9078 9.66418 34.4822 10.5575 34.1888 11.2682C31.0349 10.79 27.9101 10.79 24.8143 11.2682C24.5209 10.5575 24.0855 9.66418 23.7179 9C20.7479 9.51806 17.9068 10.4313 15.2528 11.6866C9.89968 19.8427 8.44853 27.7963 9.17411 35.6368C12.7246 38.3101 16.1654 39.934 19.5482 40.9967C20.3835 39.8377 21.1284 38.6057 21.7701 37.3072C20.5479 36.8389 19.3773 36.2612 18.2712 35.5903C18.5647 35.3712 18.8517 35.142 19.129 34.9063C25.8753 38.0876 33.2052 38.0876 39.8709 34.9063C40.1513 35.142 40.4384 35.3712 40.7286 35.5903C39.6193 36.2644 38.4455 36.8423 37.2233 37.3105C37.865 38.6057 38.6067 39.8411 39.4451 41C42.8311 39.9373 46.2752 38.3135 49.8257 35.6368C50.6771 26.5476 48.3714 18.6671 43.731 11.68ZM22.6892 30.8149C20.664 30.8149 19.0033 28.9087 19.0033 26.5875C19.0033 24.2661 20.6285 22.3566 22.6892 22.3566C24.7498 22.3566 26.4105 24.2628 26.3751 26.5875C26.3784 28.9087 24.7498 30.8149 22.6892 30.8149ZM36.3107 30.8149C34.2855 30.8149 32.6247 28.9087 32.6247 26.5875C32.6247 24.2661 34.2501 22.3566 36.3107 22.3566C38.3713 22.3566 40.0321 24.2628 39.9966 26.5875C39.9966 28.9087 38.3713 30.8149 36.3107 30.8149Z" fill="white"/>
<path d="M57.5483 39H55.2812L58.2259 30.2727H61.0341L63.9787 39H61.7116L59.6619 32.4716H59.5938L57.5483 39ZM57.2457 35.5653H61.9844V37.1676H57.2457V35.5653ZM64.9183 41.4545V32.4545H66.9808V33.5753H67.0447C67.13 33.3764 67.2507 33.1847 67.407 33C67.5661 32.8153 67.7678 32.6648 68.0121 32.5483C68.2592 32.429 68.5547 32.3693 68.8984 32.3693C69.353 32.3693 69.7777 32.4886 70.1726 32.7273C70.5703 32.9659 70.8913 33.3338 71.1357 33.831C71.38 34.3281 71.5021 34.9616 71.5021 35.7315C71.5021 36.473 71.3842 37.0938 71.1484 37.5938C70.9155 38.0938 70.6001 38.4688 70.2024 38.7188C69.8075 38.9688 69.3686 39.0938 68.8857 39.0938C68.5561 39.0938 68.2706 39.0398 68.0291 38.9318C67.7876 38.8239 67.5845 38.6818 67.4197 38.5057C67.2578 38.3295 67.1328 38.1406 67.0447 37.9389H67.0021V41.4545H64.9183ZM66.9595 35.7273C66.9595 36.0795 67.0064 36.3864 67.1001 36.6477C67.1967 36.9091 67.3345 37.1122 67.5135 37.2571C67.6953 37.3991 67.9126 37.4702 68.1655 37.4702C68.4212 37.4702 68.6385 37.3991 68.8175 37.2571C68.9964 37.1122 69.1314 36.9091 69.2223 36.6477C69.3161 36.3864 69.3629 36.0795 69.3629 35.7273C69.3629 35.375 69.3161 35.0696 69.2223 34.8111C69.1314 34.5526 68.9964 34.3523 68.8175 34.2102C68.6413 34.0682 68.424 33.9972 68.1655 33.9972C67.9098 33.9972 67.6925 34.0668 67.5135 34.206C67.3345 34.3452 67.1967 34.544 67.1001 34.8026C67.0064 35.0611 66.9595 35.3693 66.9595 35.7273ZM72.5941 41.4545V32.4545H74.6566V33.5753H74.7205C74.8058 33.3764 74.9265 33.1847 75.0827 33C75.2418 32.8153 75.4435 32.6648 75.6879 32.5483C75.935 32.429 76.2305 32.3693 76.5742 32.3693C77.0288 32.3693 77.4535 32.4886 77.8484 32.7273C78.2461 32.9659 78.5671 33.3338 78.8114 33.831C79.0558 34.3281 79.1779 34.9616 79.1779 35.7315C79.1779 36.473 79.06 37.0938 78.8242 37.5938C78.5913 38.0938 78.2759 38.4688 77.8782 38.7188C77.4833 38.9688 77.0444 39.0938 76.5614 39.0938C76.2319 39.0938 75.9464 39.0398 75.7049 38.9318C75.4634 38.8239 75.2603 38.6818 75.0955 38.5057C74.9336 38.3295 74.8086 38.1406 74.7205 37.9389H74.6779V41.4545H72.5941ZM74.6353 35.7273C74.6353 36.0795 74.6822 36.3864 74.7759 36.6477C74.8725 36.9091 75.0103 37.1122 75.1893 37.2571C75.3711 37.3991 75.5884 37.4702 75.8413 37.4702C76.0969 37.4702 76.3143 37.3991 76.4933 37.2571C76.6722 37.1122 76.8072 36.9091 76.8981 36.6477C76.9918 36.3864 77.0387 36.0795 77.0387 35.7273C77.0387 35.375 76.9918 35.0696 76.8981 34.8111C76.8072 34.5526 76.6722 34.3523 76.4933 34.2102C76.3171 34.0682 76.0998 33.9972 75.8413 33.9972C75.5856 33.9972 75.3683 34.0668 75.1893 34.206C75.0103 34.3452 74.8725 34.544 74.7759 34.8026C74.6822 35.0611 74.6353 35.3693 74.6353 35.7273ZM86.0739 39H82.848V30.2727H86.0696C86.9588 30.2727 87.7244 30.4474 88.3665 30.7969C89.0114 31.1435 89.5085 31.6435 89.858 32.2969C90.2074 32.9474 90.3821 33.7259 90.3821 34.6321C90.3821 35.5412 90.2074 36.3224 89.858 36.9759C89.5114 37.6293 89.0156 38.1307 88.3707 38.4801C87.7259 38.8267 86.9602 39 86.0739 39ZM84.9574 37.2017H85.9929C86.4815 37.2017 86.8949 37.1193 87.233 36.9545C87.5739 36.7869 87.831 36.5156 88.0043 36.1406C88.1804 35.7628 88.2685 35.2599 88.2685 34.6321C88.2685 34.0043 88.1804 33.5043 88.0043 33.1321C87.8281 32.7571 87.5682 32.4872 87.2244 32.3224C86.8835 32.1548 86.4631 32.071 85.9631 32.071H84.9574V37.2017ZM91.6136 39V32.4545H93.6974V39H91.6136ZM92.6577 31.6918C92.3651 31.6918 92.1136 31.5952 91.9034 31.402C91.6932 31.206 91.5881 30.9702 91.5881 30.6946C91.5881 30.4219 91.6932 30.1889 91.9034 29.9957C92.1136 29.7997 92.3651 29.7017 92.6577 29.7017C92.9531 29.7017 93.2045 29.7997 93.4119 29.9957C93.6222 30.1889 93.7273 30.4219 93.7273 30.6946C93.7273 30.9702 93.6222 31.206 93.4119 31.402C93.2045 31.5952 92.9531 31.6918 92.6577 31.6918ZM95.0238 39V32.4545H97.0479V33.6477H97.1161C97.2354 33.2159 97.43 32.8949 97.6999 32.6847C97.9698 32.4716 98.2837 32.3651 98.6417 32.3651C98.7383 32.3651 98.8377 32.3722 98.94 32.3864C99.0423 32.3977 99.1374 32.4162 99.2255 32.4418V34.2528C99.1261 34.2187 98.9954 34.1918 98.8335 34.1719C98.6744 34.152 98.5323 34.142 98.4073 34.142C98.1602 34.142 97.9371 34.1974 97.7383 34.3082C97.5423 34.4162 97.3874 34.5682 97.2738 34.7642C97.163 34.9574 97.1076 35.1847 97.1076 35.446V39H95.0238ZM102.794 39.1236C102.11 39.1236 101.519 38.9886 101.022 38.7188C100.527 38.446 100.147 38.0582 99.8796 37.5554C99.6154 37.0497 99.4833 36.4489 99.4833 35.7528C99.4833 35.0767 99.6168 34.4858 99.8839 33.9801C100.151 33.4716 100.527 33.0767 101.013 32.7955C101.499 32.5114 102.071 32.3693 102.73 32.3693C103.196 32.3693 103.623 32.4418 104.009 32.5866C104.395 32.7315 104.729 32.946 105.01 33.2301C105.292 33.5142 105.51 33.8651 105.667 34.2827C105.823 34.6974 105.901 35.1733 105.901 35.7102V36.2301H100.212V35.0199H103.962C103.959 34.7983 103.907 34.6009 103.804 34.4276C103.702 34.2543 103.561 34.1193 103.382 34.0227C103.206 33.9233 103.003 33.8736 102.773 33.8736C102.54 33.8736 102.331 33.9261 102.147 34.0312C101.962 34.1335 101.816 34.2741 101.708 34.4531C101.6 34.6293 101.543 34.8295 101.537 35.054V36.2855C101.537 36.5526 101.59 36.7869 101.695 36.9886C101.8 37.1875 101.949 37.3423 102.142 37.4531C102.336 37.5639 102.566 37.6193 102.833 37.6193C103.017 37.6193 103.185 37.5937 103.336 37.5426C103.486 37.4915 103.615 37.4162 103.723 37.3168C103.831 37.2173 103.912 37.0952 103.966 36.9503L105.88 37.0057C105.8 37.4347 105.625 37.8082 105.355 38.1264C105.088 38.4418 104.738 38.6875 104.303 38.8636C103.868 39.0369 103.365 39.1236 102.794 39.1236ZM110.021 39.1236C109.33 39.1236 108.738 38.9815 108.244 38.6974C107.752 38.4134 107.374 38.0185 107.11 37.5128C106.846 37.0043 106.714 36.4162 106.714 35.7486C106.714 35.0781 106.846 34.4901 107.11 33.9844C107.377 33.4759 107.756 33.0795 108.248 32.7955C108.742 32.5114 109.332 32.3693 110.016 32.3693C110.621 32.3693 111.148 32.4787 111.597 32.6974C112.049 32.9162 112.401 33.2259 112.654 33.6264C112.91 34.0241 113.045 34.4915 113.059 35.0284H111.112C111.072 34.6932 110.958 34.4304 110.771 34.2401C110.586 34.0497 110.344 33.9545 110.046 33.9545C109.805 33.9545 109.593 34.0227 109.411 34.1591C109.229 34.2926 109.087 34.4915 108.985 34.7557C108.886 35.017 108.836 35.3409 108.836 35.7273C108.836 36.1136 108.886 36.4403 108.985 36.7074C109.087 36.9716 109.229 37.1719 109.411 37.3082C109.593 37.4418 109.805 37.5085 110.046 37.5085C110.239 37.5085 110.41 37.4673 110.558 37.3849C110.708 37.3026 110.832 37.1818 110.928 37.0227C111.025 36.8608 111.086 36.6648 111.112 36.4347H113.059C113.039 36.9744 112.904 37.446 112.654 37.8494C112.407 38.2528 112.059 38.5668 111.61 38.7912C111.164 39.0128 110.634 39.1236 110.021 39.1236ZM117.82 32.4545V33.9886H113.691V32.4545H117.82ZM114.556 30.8864H116.64V36.9418C116.64 37.0696 116.659 37.1733 116.699 37.2528C116.742 37.3295 116.803 37.3849 116.882 37.419C116.962 37.4503 117.057 37.4659 117.168 37.4659C117.248 37.4659 117.331 37.4588 117.419 37.4446C117.51 37.4276 117.578 37.4134 117.624 37.402L117.939 38.9062C117.84 38.9347 117.699 38.9702 117.517 39.0128C117.338 39.0554 117.124 39.0824 116.874 39.0938C116.385 39.1165 115.966 39.0597 115.617 38.9233C115.27 38.7841 115.005 38.5682 114.82 38.2756C114.638 37.983 114.55 37.6151 114.556 37.1719V30.8864ZM121.868 39.1236C121.181 39.1236 120.59 38.983 120.096 38.7017C119.604 38.4176 119.225 38.0227 118.958 37.517C118.694 37.0085 118.561 36.419 118.561 35.7486C118.561 35.0753 118.694 34.4858 118.958 33.9801C119.225 33.4716 119.604 33.0767 120.096 32.7955C120.59 32.5114 121.181 32.3693 121.868 32.3693C122.556 32.3693 123.145 32.5114 123.637 32.7955C124.131 33.0767 124.51 33.4716 124.775 33.9801C125.042 34.4858 125.175 35.0753 125.175 35.7486C125.175 36.419 125.042 37.0085 124.775 37.517C124.51 38.0227 124.131 38.4176 123.637 38.7017C123.145 38.983 122.556 39.1236 121.868 39.1236ZM121.881 37.5511C122.131 37.5511 122.343 37.4744 122.516 37.321C122.689 37.1676 122.821 36.9545 122.912 36.6818C123.006 36.4091 123.053 36.0937 123.053 35.7358C123.053 35.3722 123.006 35.054 122.912 34.7812C122.821 34.5085 122.689 34.2955 122.516 34.142C122.343 33.9886 122.131 33.9119 121.881 33.9119C121.623 33.9119 121.404 33.9886 121.225 34.142C121.049 34.2955 120.914 34.5085 120.82 34.7812C120.729 35.054 120.684 35.3722 120.684 35.7358C120.684 36.0937 120.729 36.4091 120.82 36.6818C120.914 36.9545 121.049 37.1676 121.225 37.321C121.404 37.4744 121.623 37.5511 121.881 37.5511ZM126.243 39V32.4545H128.267V33.6477H128.335C128.454 33.2159 128.649 32.8949 128.919 32.6847C129.189 32.4716 129.502 32.3651 129.86 32.3651C129.957 32.3651 130.056 32.3722 130.159 32.3864C130.261 32.3977 130.356 32.4162 130.444 32.4418V34.2528C130.345 34.2187 130.214 34.1918 130.052 34.1719C129.893 34.152 129.751 34.142 129.626 34.142C129.379 34.142 129.156 34.1974 128.957 34.3082C128.761 34.4162 128.606 34.5682 128.493 34.7642C128.382 34.9574 128.326 35.1847 128.326 35.446V39H126.243ZM132.767 41.4545C132.517 41.4545 132.281 41.4347 132.059 41.3949C131.838 41.358 131.647 41.3082 131.488 41.2457L131.949 39.733C132.153 39.8011 132.338 39.8409 132.502 39.8523C132.67 39.8636 132.814 39.8366 132.933 39.7713C133.055 39.7088 133.149 39.5966 133.214 39.4347L133.295 39.2386L130.968 32.4545H133.15L134.356 37.125H134.424L135.647 32.4545H137.842L135.375 39.6264C135.255 39.9844 135.086 40.2997 134.868 40.5724C134.652 40.848 134.372 41.0639 134.028 41.2202C133.687 41.3764 133.267 41.4545 132.767 41.4545Z" fill="white"/>
</svg>
